:SAMPLES-PER-SECOND 30
:FULLY-SPECIFIED
:DEGREES
195
root  11.00875524 38.73022185 -4.78628902 13.34700012 19.71730042 -4.424479961
lowerback  11.96510029 7.816830158 -0.8619629741
upperback  2.368069887 9.976429939 -7.117249966
thorax  -2.976039886 5.004859924 -8.412090302
lowerneck  -0.694633007 -6.626679897 -11.33780003
upperneck  2.487090111 -9.478219986 22.62770081
head  2.532629967 -4.532390118 8.592909813
lclavicle  0 -9.442270133e-015 7.951389973e-016
lhumerus  10.84790039 -29.5991993 67.05090332
lradius  2.678272504e-031 -2.301238891e-031 139.3300018
lwrist  -7.062250077e-031 -0 7.262020111
lhand  -1.496451383e-031 -27.76390076 20.11240005
lfingers  90 7.125020027 -90
lthumb  89.89689403 5.08795885 91.16245106
rclavicle  0 -9.442270133e-015 7.951389973e-016
rhumerus  78.1292038 -45.76729965 -76.22419739
rradius  3.429068641e-031 8.428121331e-032 13.80869961
rwrist  -3.531125038e-031 -7.062250077e-031 82.10590363
rhand  -7.920061211e-032 -33.2840004 9.303460121
rfingers  -90 -7.125020027 -90
rthumb  -92.93752616 -24.25625642 -97.11982154
rfemur  2.015029907 2.51631999 29.87310028
rtibia  -0 0 32.97359848
rfoot  -0 -19.29030037 -19.53510094
rtoes  5.373923086 19.29304026 -105.8922705
lfemur  -57.89189911 -12.30830002 -0.7032349706
ltibia  -0 0 36.60279846
lfoot  8.930299638e-032 8.688710213 -6.607339859
ltoes  -4.250644065 -19.5611806 -102.515957
196
root  10.88831143 38.6682225 -4.595510978 13.69470024 21.78370094 -4.601260185
lowerback  11.79990005 7.827859879 -1.020089984
upperback  2.688910007 10.01070023 -6.704339981
thorax  -2.648390055 5.030970097 -7.827489853
lowerneck  -1.32735002 -7.110199928 -11.00549984
upperneck  0.8770290017 -9.880120277 23.35820007
head  2.290169954 -4.750070095 8.732709885
lclavicle  0 -9.442270133e-015 7.951389973e-016
lhumerus  11.01889992 -30.04820061 66.57740021
lradius  2.693196933e-031 -2.283754435e-031 139.7030029
lwrist  -1.412450015e-030 -1.765562519e-031 6.59581995
lhand  -1.496451383e-031 -27.76390076 20.11240005
lfingers  90 7.125020027 -90
lthumb  89.89689403 5.08795885 91.16245106
rclavicle  0 -9.442270133e-015 7.951389973e-016
rhumerus  71.09899902 -45.90980148 -67.57649994
rradius  3.390012952e-031 9.882591877e-032 16.25250053
rwrist  2.648343779e-031 -1.412450015e-030 71.18119812
rhand  -7.920061211e-032 -33.2840004 9.303460121
rfingers  -90 -7.125020027 -90
rthumb  -92.93752616 -24.25625642 -97.11982154
rfemur  1.693529963 1.802469969 30.26819992
rtibia  -0 0 32.64250183
rfoot  -0 -19.93670082 -21.40749931
rtoes  5.373923086 19.29304026 -105.8922705
lfemur  -58.56000137 -12.05809975 -1.504099965
ltibia  -0 0 36.44829941
lfoot  -0 8.582209587 -7.627560139
ltoes  -4.250644065 -19.5611806 -102.515957
197
root  10.77468902 38.58755517 -4.416133475 13.8448 23.8560009 -4.862400055
lowerback  11.77859974 7.580560207 -1.299460053
upperback  2.955539942 9.676480293 -6.221270084
thorax  -2.531790018 4.862569809 -7.096779823
lowerneck  -1.865440011 -7.35172987 -10.83450031
upperneck  -0.6084439754 -9.956809998 24.23270035
head  2.029809952 -4.812630177 8.980999947
lclavicle  0 -9.442270133e-015 7.951389973e-016
lhumerus  10.77929974 -30.08329964 66.42919922
lradius  2.713062772e-031 -2.260118234e-031 140.2039948
lwrist  -7.062250077e-031 -1.765562519e-031 6.784259796
lhand  -1.496451383e-031 -27.76390076 20.11240005
lfingers  90 7.125020027 -90
lthumb  89.89689403 5.08795885 91.16245106
rclavicle  0 -9.442270133e-015 7.951389973e-016
rhumerus  59.7594986 -41.69829941 -51.68030167
rradius  3.378913137e-031 1.025568158e-031 16.88409996
rwrist  7.062250077e-031 -7.062250077e-031 48.27619934
rhand  -7.920061211e-032 -33.2840004 9.303460121
rfingers  -90 -7.125020027 -90
rthumb  -92.93752616 -24.25625642 -97.11982154
rfemur  1.444540024 1.22834003 30.71299934
rtibia  -0 0 32.38610077
rfoot  -0 -20.6977005 -23.76449966
rtoes  5.373923086 19.29304026 -105.8922705
lfemur  -59.10250092 -12.00720024 -2.159019947
ltibia  -0 0 36.34640121
lfoot  -0 8.275650024 -8.109270096
ltoes  -4.250644065 -19.5611806 -102.515957
198
root  10.66639968 38.49422124 -4.243533442 13.79160023 25.69420052 -5.155529976
lowerback  11.66909981 7.198550224 -1.868340015
upperback  3.285429955 9.141079903 -5.57201004
thorax  -2.384459972 4.59029007 -5.996739864
lowerneck  -2.137680054 -7.464099884 -10.93480015
upperneck  -2.050040007 -9.85394001 24.99220085
head  1.712949991 -4.808939934 9.267930031
lclavicle  0 -9.442270133e-015 7.951389973e-016
lhumerus  10.23789978 -29.84499931 66.84929657
lradius  2.720267579e-031 -2.25144139e-031 140.3869934
lwrist  0 -1.765562519e-031 6.68862009
lhand  -1.496451383e-031 -27.76390076 20.11240005
lfingers  90 7.125020027 -90
lthumb  89.89689403 5.08795885 91.16245106
rclavicle  0 -9.442270133e-015 7.951389973e-016
rhumerus  45.02479935 -29.85659981 -29.91220093
rradius  3.263083624e-031 1.349492237e-031 22.46820068
rwrist  1.059337512e-030 -7.062250077e-031 15.74199963
rhand  -7.920061211e-032 -33.2840004 9.303460121
rfingers  -90 -7.125020027 -90
rthumb  -92.93752616 -24.25625642 -97.11982154
rfemur  1.296869993 1.064290047 31.0916996
rtibia  -0 0 32.22079849
rfoot  -0 -21.96789932 -25.92900085
rtoes  5.373923086 19.29304026 -105.8922705
lfemur  -59.39979935 -12.06340027 -2.676160097
ltibia  -0 0 36.37739944
lfoot  -0 7.653190136 -8.378160477
ltoes  -4.250644065 -19.5611806 -102.515957
199
root  10.57371079 38.40333233 -4.086510966 13.6317997 27.31019974 -5.578800201
lowerback  11.53890038 6.87954998 -2.040400028
upperback  3.437190056 8.725020409 -5.206950188
thorax  -2.276089907 4.380740166 -5.439430237
lowerneck  -1.826509953 -7.617839813 -10.61079979
upperneck  -3.291280031 -9.859869957 25.70840073
head  1.344519973 -4.893959999 9.4833498
lclavicle  0 -9.442270133e-015 7.951389973e-016
lhumerus  9.652210236 -30.37479973 67.35910034
lradius  2.708283612e-031 -2.265842871e-031 140.0829926
lwrist  -1.412450015e-030 1.765562519e-031 6.075660229
lhand  -1.496451383e-031 -27.76390076 20.11240005
lfingers  90 7.125020027 -90
lthumb  89.89689403 5.08795885 91.16245106
rclavicle  0 -9.442270133e-015 7.951389973e-016
rhumerus  39.71039963 -23.19470024 -22.52820015
rradius  3.08921286e-031 1.710440862e-031 28.97249985
rwrist  1.059337512e-030 -0 0.2721270025
rhand  -7.920061211e-032 -33.2840004 9.303460121
rfingers  -90 -7.125020027 -90
rthumb  -92.93752616 -24.25625642 -97.11982154
rfemur  1.032690048 0.9489930272 31.34819984
rtibia  -0 0 32.18619919
rfoot  -0 -23.39480019 -27.4741993
rtoes  5.373923086 19.29304026 -105.8922705
lfemur  -59.78409958 -12.42560005 -2.623470068
ltibia  -0 0 36.65140152
lfoot  -0 7.107039928 -8.845749855
ltoes  -4.250644065 -19.5611806 -102.515957
200
root  10.49966662 38.3311114 -3.973689042 13.32380009 28.59230042 -6.045020103
lowerback  11.75349998 6.536340237 -1.699499965
upperback  3.409460068 8.301560402 -5.188980103
thorax  -2.408479929 4.169720173 -5.584780216
lowerneck  -1.269739985 -7.60447979 -10.15060043
upperneck  -4.053040028 -9.71006012 26.44300079
head  1.029350042 -4.900599957 9.701760292
lclavicle  0 -9.442270133e-015 7.951389973e-016
lhumerus  8.473489761 -31.05010033 67.72109985
lradius  2.709035337e-031 -2.264944057e-031 140.102005
lwrist  0 -1.765562519e-031 5.840089798
lhand  -1.496451383e-031 -27.76390076 20.11240005
lfingers  90 7.125020027 -90
lthumb  89.89689403 5.08795885 91.16245106
rclavicle  0 -9.442270133e-015 7.951389973e-016
rhumerus  37.08100128 -20.09939957 -21.06889915
rradius  2.904843002e-031 2.007668093e-031 34.65010071
rwrist  1.059337512e-030 -3.531125038e-031 0.407573998
rhand  -7.920061211e-032 -33.2840004 9.303460121
rfingers  -90 -7.125020027 -90
rthumb  -92.93752616 -24.25625642 -97.11982154
rfemur  0.6741780043 0.8106300235 31.30520058
rtibia  -0 0 32.35240173
rfoot  -0 -24.49749947 -28.40640068
rtoes  5.373923086 19.29304026 -105.8922705
lfemur  -60.34360123 -13.2105999 -1.947409987
ltibia  -0 0 37.26800156
lfoot  -0 6.626550198 -9.232930183
ltoes  -4.250644065 -19.5611806 -102.515957
201
root  10.43451114 38.26333294 -3.897355673 12.7052002 29.38139915 -6.610799789
lowerback  12.48270035 6.046060085 -1.219079971
upperback  3.388609886 7.67730999 -5.12969017
thorax  -2.821369886 3.852099895 -5.802289963
lowerneck  -1.256360054 -7.352290154 -10.09449959
upperneck  -4.091229916 -9.342849731 26.77549934
head  0.9646180272 -4.722020149 9.83602047
lclavicle  0 -9.442270133e-015 7.951389973e-016
lhumerus  7.10036993 -30.43530083 68.00240326
lradius  2.714009332e-031 -2.258981492e-031 140.2279968
lwrist  -7.062250077e-031 -1.765562519e-031 6.478209972
lhand  -1.496451383e-031 -27.76390076 20.11240005
lfingers  90 7.125020027 -90
lthumb  89.89689403 5.08795885 91.16245106
rclavicle  0 -9.442270133e-015 7.951389973e-016
rhumerus  36.12530136 -18.24720001 -21.7798996
rradius  2.735034827e-031 2.233479019e-031 39.2356987
rwrist  1.059337512e-030 -3.531125038e-031 8.143810272
rhand  -7.920061211e-032 -33.2840004 9.303460121
rfingers  -90 -7.125020027 -90
rthumb  -92.93752616 -24.25625642 -97.11982154
rfemur  0.4194689989 0.9071050286 31.04739952
rtibia  -0 0 32.78089905
rfoot  -0 -25.4666996 -28.62989998
rtoes  5.373923086 19.29304026 -105.8922705
lfemur  -60.82479858 -13.86419964 -1.111680031
ltibia  -0 0 38.27730179
lfoot  -0 6.313049793 -9.239390373
ltoes  -4.250644065 -19.5611806 -102.515957
202
root  10.36633319 38.17511131 -3.828244322 12.01819992 29.5890007 -7.207049847
lowerback  13.32830048 5.676700115 -0.8084779978
upperback  3.409179926 7.206580162 -5.110280037
thorax  -3.250169992 3.608939886 -6.04723978
lowerneck  -1.686939955 -7.14414978 -10.0085001
upperneck  -3.933379889 -9.067029953 26.6114006
head  1.017120004 -4.547639847 9.762769699
lclavicle  0 -9.442270133e-015 7.951389973e-016
lhumerus  6.475450039 -29.44249916 68.22530365
lradius  2.694631146e-031 -2.282062011e-031 139.7389984
lwrist  -7.062250077e-031 -1.765562519e-031 7.159430027
lhand  -1.496451383e-031 -27.76390076 20.11240005
lfingers  90 7.125020027 -90
lthumb  89.89689403 5.08795885 91.16245106
rclavicle  0 -9.442270133e-015 7.951389973e-016
rhumerus  35.21039963 -15.99440002 -21.73929977
rradius  2.592541067e-031 2.39741003e-031 42.76060104
rwrist  3.531125038e-031 -0 14.36979961
rhand  -7.920061211e-032 -33.2840004 9.303460121
rfingers  -90 -7.125020027 -90
rthumb  -92.93752616 -24.25625642 -97.11982154
rfemur  0.09196340293 1.44430995 30.58709908
rtibia  -0 0 33.51110077
rfoot  -0 -26.35390091 -28.12369919
rtoes  5.373923086 19.29304026 -105.8922705
lfemur  -61.21699905 -13.92380047 -0.5241649747
ltibia  -0 0 39.64759827
lfoot  -0 5.942550182 -9.059109688
ltoes  -4.250644065 -19.5611806 -102.515957
203
root  10.29039969 38.06888851 -3.76555563 11.35210037 29.21759987 -7.926350117
lowerback  13.78409958 5.623730183 -0.615670979
upperback  3.608520031 7.155240059 -5.014319897
thorax  -3.279730082 3.583420038 -6.084760189
lowerneck  -2.250550032 -7.096199989 -9.703490257
upperneck  -4.02862978 -8.967599869 26.03280067
head  1.01978004 -4.469669819 9.492460251
lclavicle  0 -9.442270133e-015 7.951389973e-016
lhumerus  6.400629997 -28.64979935 68.66670227
lradius  2.668569377e-031 -2.312483842e-031 139.0890045
lwrist  -7.062250077e-031 -1.765562519e-031 7.888609886
lhand  -1.496451383e-031 -27.76390076 20.11240005
lfingers  90 7.125020027 -90
lthumb  89.89689403 5.08795885 91.16245106
rclavicle  0 -9.442270133e-015 7.951389973e-016
rhumerus  35.04399872 -14.93540001 -22.38260078
rradius  2.481403646e-031 2.512265906e-031 45.35409927
rwrist  7.062250077e-031 -3.531125038e-031 16.47439957
rhand  -7.920061211e-032 -33.2840004 9.303460121
rfingers  -90 -7.125020027 -90
rthumb  -92.93752616 -24.25625642 -97.11982154
rfemur  -0.4611290097 2.419029951 30.06040001
rtibia  -0 0 34.51739883
rfoot  -0 -26.82839966 -27.22480011
rtoes  5.373923086 19.29304026 -105.8922705
lfemur  -61.59120178 -13.37110043 -0.01424720045
ltibia  -0 0 41.30789948
lfoot  -0 5.3583498 -9.00510025
ltoes  -4.250644065 -19.5611806 -102.515957
